<svg width="72" height="75" viewBox="0 0 72 75" fill="none" xmlns="http://www.w3.org/2000/svg">
<path d="M69 13.5H57V6C57 2.69063 54.3094 0 51 0H21C17.6906 0 15 2.69063 15 6V13.5H3C1.34063 13.5 0 14.8406 0 16.5V19.5C0 19.9125 0.3375 20.25 0.75 20.25H6.4125L8.72813 69.2812C8.87813 72.4781 11.5219 75 14.7188 75H57.2813C60.4875 75 63.1219 72.4875 63.2719 69.2812L65.5875 20.25H71.25C71.6625 20.25 72 19.9125 72 19.5V16.5C72 14.8406 70.6594 13.5 69 13.5ZM50.25 13.5H21.75V6.75H50.25V13.5Z" fill="#DADADA"/>
</svg>
